<svg viewBox="0 0 24 24" xmlns="http://www.w3.org/2000/svg"><path d="m13.85 0a4.16 4.16 0 0 0 -2.95 1.217l-9.444 9.443a.835.835 0 0 0 0 1.18.835.835 0 0 0 1.18 0l9.442-9.442a2.49 2.49 0 0 1 3.541 0 2.49 2.49 0 0 1 0 3.541l-7.029 7.031-.1.1a.835.835 0 0 0 0 1.18.835.835 0 0 0 1.18 0l.1-.098 7.03-7.034a2.49 2.49 0 0 1 3.542 0l.049.05a2.49 2.49 0 0 1 0 3.54l-8.54 8.54a1.96 1.96 0 0 0 0 2.755l1.753 1.753a.835.835 0 0 0 1.18 0 .835.835 0 0 0 0-1.18l-1.753-1.753a.266.266 0 0 1 0-.394l8.54-8.54a4.185 4.185 0 0 0 0-5.9l-.05-.05a4.16 4.16 0 0 0 -2.95-1.218c-.2 0-.401.02-.6.048a4.17 4.17 0 0 0 -1.17-3.552 4.16 4.16 0 0 0 -2.951-1.217m0 3.333a.84.84 0 0 0 -.59.245l-6.985 6.982a4.186 4.186 0 0 0 0 5.902 4.186 4.186 0 0 0 5.902 0l6.983-6.982a.835.835 0 0 0 0-1.18.835.835 0 0 0 -1.18 0l-6.985 6.984a2.49 2.49 0 0 1 -3.54 0 2.49 2.49 0 0 1 0-3.54l6.983-6.985a.835.835 0 0 0 0-1.18.84.84 0 0 0 -.59-.245"/></svg>