<svg fill="none" height="360" viewBox="0 0 602 360" width="602" xmlns="http://www.w3.org/2000/svg"><g fill="#fff"><path d="m480.96 180c0 16.572-6.721 31.572-17.603 42.42-10.882 10.86-25.912 17.58-42.517 17.58s-31.635 6.708-42.505 17.568c-10.882 10.86-17.615 25.86-17.615 42.432s-6.721 31.572-17.603 42.42c-10.882 10.86-25.912 17.58-42.517 17.58s-31.635-6.72-42.505-17.58c-10.882-10.848-17.615-25.848-17.615-42.42s6.733-31.572 17.615-42.432c10.87-10.86 25.9-17.568 42.505-17.568s31.635-6.72 42.517-17.58c10.882-10.848 17.603-25.848 17.603-42.42 0-33.144-26.91-60-60.12-60-16.605 0-31.635-6.72-42.505-17.58-10.882-10.848-17.615-25.848-17.615-42.42s6.733-31.572 17.615-42.432c10.87-10.86 25.9-17.568 42.505-17.568 33.21 0 60.12 26.856 60.12 60 0 16.572 6.733 31.572 17.615 42.42 10.87 10.86 25.9 17.58 42.505 17.58 33.21 0 60.12 26.856 60.12 60z"/><path d="m240.48 180c0-33.138-26.917-60-60.12-60s-60.12 26.862-60.12 60c0 33.137 26.917 60 60.12 60s60.12-26.863 60.12-60z"/><path d="m120.24 300c0-33.137-26.9166-60-60.12-60s-60.12 26.863-60.12 60c0 33.138 26.9166 60 60.12 60s60.12-26.862 60.12-60z"/><path d="m601.2 300c0-33.137-26.917-60-60.12-60s-60.12 26.863-60.12 60c0 33.138 26.917 60 60.12 60s60.12-26.862 60.12-60z"/></g></svg>