<?xml version="1.0" encoding="UTF-8" standalone="no"?><!DOCTYPE svg PUBLIC "-//W3C//DTD SVG 1.1//EN" "http://www.w3.org/Graphics/SVG/1.1/DTD/svg11.dtd"><svg width="100%" height="100%" viewBox="0 0 196 400" version="1.1" xmlns="http://www.w3.org/2000/svg" xmlns:xlink="http://www.w3.org/1999/xlink" xml:space="preserve" xmlns:serif="http://www.serif.com/" style="fill-rule:evenodd;clip-rule:evenodd;stroke-linejoin:round;stroke-miterlimit:2;"><rect id="Artboard1" x="0" y="0" width="195.31" height="400" style="fill:none;"/><g id="Artboard11" serif:id="Artboard1"><path d="M42.454,268.864l-42.454,0l0,131.136l21.316,-0.089c172.637,-0.725 173.972,-191.02 173.972,-191.02l0.022,-21.25l-152.856,0l0,-141.472c37.108,8.456 63.069,33.539 80.557,57.876c11.461,15.951 19.374,31.748 24.293,43.117l45.555,0c-3.788,-10.907 -14.776,-39.227 -35.372,-67.89c-27.25,-37.922 -70.954,-75.898 -135.433,-78.412l-22.054,-0.86l0,230.095l151.176,0c-5.066,37.922 -25.593,114.379 -108.722,125.897l0,-87.128Z" style="fill:#808080;"/></g></svg>